<svg height="16" viewBox="0 0 21 16" width="21" xmlns="http://www.w3.org/2000/svg"><path d="m91.8064384 17h-14.9677305c-1.5669446.0019738-2.8367119 1.2717633-2.8387079 2.8387079v10.3225842c0 1.5648821 1.2738036 2.8387079 2.8387079 2.8387079h14.9677527c1.564882 0 2.8387078-1.2738258 2.8387078-2.8387079v-10.3225842c-.0000221-1.5649043-1.2738258-2.8387079-2.83873-2.8387079zm0 1.5483821c.1269878 0 .2472337.0242621.3633768.0583266l-7.6887956 5.9612865c-.0930564.0728528-.2238144.0728528-.3168929 0l-7.6887512-5.9612865c.1161209-.0340645.2363667-.0583266.3633324-.0583266h14.9677527zm0 12.9032136h-14.9677305c-.7123826-.0005544-1.2897492-.577921-1.2903036-1.2903036v-10.3133141l7.6670838 5.9437443c.6514392.5057114 1.5627531.5057114 2.2141922 0l7.6671061-5.9437443v10.3133141c0 .7117173-.5785864 1.2903036-1.290348 1.2903036z" fill-rule="evenodd" transform="translate(-74 -17)"/></svg>