<svg height="18" viewBox="0 0 18 18" width="18" xmlns="http://www.w3.org/2000/svg"><path d="m259.000296 29.1662438c0-.4606752-.37234-.8326821-.836349-.8326821-.643011 0-1.163688-.524343-1.163688-1.1643549v-4.3360803c0-2.8537195-2.312709-5.166429-5.166762-5.166429s-5.166762 2.3120428-5.166762 5.166429v4.3360803c0 .6430119-.52301 1.1643549-1.163689 1.1643549-.462008 0-.836348.3736736-.836348.8326821v.1673365h14.333598zm-4.004407 1.8337006c-.086335 1.6716977-1.469361 3.0000556-3.162392 3.0000556s-3.075724-1.3283579-3.162392-3.0000556h-4.170744c-.828682 0-1.500361-.670679-1.500361-1.4993611v-.3343395c0-1.2083557.859016-2.2163744 2.000037-2.4490453v-3.884072c0-3.7747365 3.059057-6.8331265 6.83346-6.8331265s6.83346 3.0590566 6.83346 6.8331265v3.884072c1.142354.2320043 2.000037 1.2396896 2.000037 2.4490453v.3343395c0 .8310154-.671679 1.4993611-1.500361 1.4993611zm-4.65342 0c.083002.7500139.719014 1.3333581 1.491028 1.3333581s1.408026-.5833442 1.491028-1.3333581z" fill-rule="evenodd" transform="translate(-243 -16)"/></svg>