<svg height="26" viewBox="0 0 16 26" width="16" xmlns="http://www.w3.org/2000/svg"><path d="m251.833409 34.1255681c.483206 0 .874943.3920043.874943.8744097 0 .4832053-.392004.8752097-.874943.8752097-.483205 0-.874943-.3920044-.874943-.8752097 0-.4824054.391738-.8744097.874943-.8744097zm-5.333392-1.1253459h10.666518v-17.7807309h-10.666518zm.249869-20.0002222c-.961077 0-1.749886.7890754-1.749886 1.7498861v20.5004945c0 .960544.788809 1.7496194 1.749886 1.7496194h10.167046c.961078 0 1.750153-.7890754 1.750153-1.7496194v-20.5004945c-.000267-.9608107-.789342-1.7498861-1.750153-1.7498861z" fill="none" stroke="#000" transform="translate(-244 -12)"/></svg>